<mxfile host="app.diagrams.net" modified="2023-10-19T09:47:41.973Z" agent="Mozilla/5.0 (Macintosh; Intel Mac OS X 10_15_7) AppleWebKit/537.36 (KHTML, like Gecko) Chrome/118.0.0.0 Safari/537.36" etag="v-nbtNR8V4Rjl3RVbcqW" version="22.0.4" type="github" pages="2">
  <diagram name="DCU-GESTION-CARTE" id="VVT_rbBx6DJ3inKtZTUR">
    <mxGraphModel dx="738" dy="625" grid="1" gridSize="10" guides="1" tooltips="1" connect="1" arrows="1" fold="1" page="1" pageScale="1" pageWidth="827" pageHeight="1169" math="0" shadow="0">
      <root>
        <mxCell id="0" />
        <mxCell id="1" parent="0" />
        <mxCell id="bptloFo_OnKCybxd525l-1" value="Admin" style="shape=umlActor;verticalLabelPosition=bottom;verticalAlign=top;html=1;" vertex="1" parent="1">
          <mxGeometry x="80" y="330" width="30" height="60" as="geometry" />
        </mxCell>
        <mxCell id="bptloFo_OnKCybxd525l-2" value="Gerer menu" style="ellipse;whiteSpace=wrap;html=1;" vertex="1" parent="1">
          <mxGeometry x="240" y="140" width="100" height="50" as="geometry" />
        </mxCell>
        <mxCell id="bptloFo_OnKCybxd525l-3" value="" style="endArrow=none;html=1;rounded=0;" edge="1" parent="1" source="bptloFo_OnKCybxd525l-1" target="bptloFo_OnKCybxd525l-2">
          <mxGeometry width="50" height="50" relative="1" as="geometry">
            <mxPoint x="330" y="250" as="sourcePoint" />
            <mxPoint x="380" y="200" as="targetPoint" />
          </mxGeometry>
        </mxCell>
        <mxCell id="bptloFo_OnKCybxd525l-4" value="CRUD" style="ellipse;whiteSpace=wrap;html=1;" vertex="1" parent="1">
          <mxGeometry x="160" y="90" width="60" height="30" as="geometry" />
        </mxCell>
        <mxCell id="bptloFo_OnKCybxd525l-9" value="" style="endArrow=block;endSize=16;endFill=0;html=1;rounded=0;" edge="1" parent="1" source="bptloFo_OnKCybxd525l-4" target="bptloFo_OnKCybxd525l-2">
          <mxGeometry width="160" relative="1" as="geometry">
            <mxPoint x="414" y="144" as="sourcePoint" />
            <mxPoint x="349" y="170" as="targetPoint" />
          </mxGeometry>
        </mxCell>
        <mxCell id="bptloFo_OnKCybxd525l-10" value="Gerer produit" style="ellipse;whiteSpace=wrap;html=1;" vertex="1" parent="1">
          <mxGeometry x="266" y="320" width="90" height="30" as="geometry" />
        </mxCell>
        <mxCell id="bptloFo_OnKCybxd525l-11" value="CRUD" style="ellipse;whiteSpace=wrap;html=1;" vertex="1" parent="1">
          <mxGeometry x="240" y="230" width="60" height="30" as="geometry" />
        </mxCell>
        <mxCell id="bptloFo_OnKCybxd525l-14" value="" style="endArrow=block;endSize=16;endFill=0;html=1;rounded=0;" edge="1" parent="1" source="bptloFo_OnKCybxd525l-11" target="bptloFo_OnKCybxd525l-10">
          <mxGeometry width="160" relative="1" as="geometry">
            <mxPoint x="323" y="200" as="sourcePoint" />
            <mxPoint x="307" y="270" as="targetPoint" />
          </mxGeometry>
        </mxCell>
        <mxCell id="bptloFo_OnKCybxd525l-17" value="" style="endArrow=none;html=1;rounded=0;" edge="1" parent="1" source="bptloFo_OnKCybxd525l-1" target="bptloFo_OnKCybxd525l-10">
          <mxGeometry width="50" height="50" relative="1" as="geometry">
            <mxPoint x="152" y="439" as="sourcePoint" />
            <mxPoint x="310" y="281" as="targetPoint" />
          </mxGeometry>
        </mxCell>
        <mxCell id="bptloFo_OnKCybxd525l-18" value="Exporter liste des produits" style="ellipse;whiteSpace=wrap;html=1;" vertex="1" parent="1">
          <mxGeometry x="200" y="500" width="110" height="40" as="geometry" />
        </mxCell>
        <mxCell id="bptloFo_OnKCybxd525l-21" value="Consulter liste produit" style="ellipse;whiteSpace=wrap;html=1;" vertex="1" parent="1">
          <mxGeometry x="270" y="410" width="86" height="40" as="geometry" />
        </mxCell>
        <mxCell id="bptloFo_OnKCybxd525l-22" value="&amp;lt;&amp;lt;include&amp;gt;&amp;gt;" style="html=1;verticalAlign=bottom;labelBackgroundColor=none;endArrow=open;endFill=0;dashed=1;rounded=0;" edge="1" parent="1" source="bptloFo_OnKCybxd525l-10" target="bptloFo_OnKCybxd525l-21">
          <mxGeometry width="160" relative="1" as="geometry">
            <mxPoint x="220" y="546" as="sourcePoint" />
            <mxPoint x="487" y="330" as="targetPoint" />
          </mxGeometry>
        </mxCell>
        <mxCell id="bptloFo_OnKCybxd525l-23" value="&amp;lt;&amp;lt;extend&amp;gt;&amp;gt;" style="html=1;verticalAlign=bottom;labelBackgroundColor=none;endArrow=open;endFill=0;dashed=1;rounded=0;" edge="1" parent="1" source="bptloFo_OnKCybxd525l-18" target="bptloFo_OnKCybxd525l-21">
          <mxGeometry width="160" relative="1" as="geometry">
            <mxPoint x="626" y="435" as="sourcePoint" />
            <mxPoint x="530" y="385" as="targetPoint" />
          </mxGeometry>
        </mxCell>
        <mxCell id="bptloFo_OnKCybxd525l-24" value="Voir détail, avis et note produits" style="ellipse;whiteSpace=wrap;html=1;" vertex="1" parent="1">
          <mxGeometry x="358" y="500" width="110" height="40" as="geometry" />
        </mxCell>
        <mxCell id="bptloFo_OnKCybxd525l-25" value="&amp;lt;&amp;lt;extend&amp;gt;&amp;gt;" style="html=1;verticalAlign=bottom;labelBackgroundColor=none;endArrow=open;endFill=0;dashed=1;rounded=0;" edge="1" parent="1" source="bptloFo_OnKCybxd525l-24" target="bptloFo_OnKCybxd525l-21">
          <mxGeometry width="160" relative="1" as="geometry">
            <mxPoint x="426" y="490" as="sourcePoint" />
            <mxPoint x="332" y="531" as="targetPoint" />
          </mxGeometry>
        </mxCell>
        <mxCell id="bptloFo_OnKCybxd525l-26" value="Se déconnecter" style="ellipse;whiteSpace=wrap;html=1;" vertex="1" parent="1">
          <mxGeometry x="520" y="260" width="80" height="50" as="geometry" />
        </mxCell>
        <mxCell id="bptloFo_OnKCybxd525l-27" value="&amp;lt;&amp;lt;include&amp;gt;&amp;gt;" style="html=1;verticalAlign=bottom;labelBackgroundColor=none;endArrow=open;endFill=0;dashed=1;rounded=0;" edge="1" parent="1" source="bptloFo_OnKCybxd525l-21" target="bptloFo_OnKCybxd525l-26">
          <mxGeometry width="160" relative="1" as="geometry">
            <mxPoint x="682" y="320" as="sourcePoint" />
            <mxPoint x="680" y="370" as="targetPoint" />
          </mxGeometry>
        </mxCell>
        <mxCell id="bptloFo_OnKCybxd525l-28" value="&amp;lt;&amp;lt;include&amp;gt;&amp;gt;" style="html=1;verticalAlign=bottom;labelBackgroundColor=none;endArrow=open;endFill=0;dashed=1;rounded=0;" edge="1" parent="1" source="bptloFo_OnKCybxd525l-30" target="bptloFo_OnKCybxd525l-26">
          <mxGeometry width="160" relative="1" as="geometry">
            <mxPoint x="414" y="246" as="sourcePoint" />
            <mxPoint x="694" y="120" as="targetPoint" />
          </mxGeometry>
        </mxCell>
        <mxCell id="bptloFo_OnKCybxd525l-29" value="Exporter liste des produits" style="ellipse;whiteSpace=wrap;html=1;" vertex="1" parent="1">
          <mxGeometry x="120" y="30" width="110" height="40" as="geometry" />
        </mxCell>
        <mxCell id="bptloFo_OnKCybxd525l-30" value="Consulter liste menu" style="ellipse;whiteSpace=wrap;html=1;" vertex="1" parent="1">
          <mxGeometry x="312" y="60" width="86" height="40" as="geometry" />
        </mxCell>
        <mxCell id="bptloFo_OnKCybxd525l-31" value="&amp;lt;&amp;lt;extend&amp;gt;&amp;gt;" style="html=1;verticalAlign=bottom;labelBackgroundColor=none;endArrow=open;endFill=0;dashed=1;rounded=0;" edge="1" parent="1" source="bptloFo_OnKCybxd525l-29" target="bptloFo_OnKCybxd525l-30">
          <mxGeometry width="160" relative="1" as="geometry">
            <mxPoint x="826" y="35" as="sourcePoint" />
            <mxPoint x="730" y="-15" as="targetPoint" />
          </mxGeometry>
        </mxCell>
        <mxCell id="bptloFo_OnKCybxd525l-32" value="Voir détail, avis et note produits" style="ellipse;whiteSpace=wrap;html=1;" vertex="1" parent="1">
          <mxGeometry x="490" y="80" width="110" height="40" as="geometry" />
        </mxCell>
        <mxCell id="bptloFo_OnKCybxd525l-33" value="&amp;lt;&amp;lt;extend&amp;gt;&amp;gt;" style="html=1;verticalAlign=bottom;labelBackgroundColor=none;endArrow=open;endFill=0;dashed=1;rounded=0;" edge="1" parent="1" source="bptloFo_OnKCybxd525l-32" target="bptloFo_OnKCybxd525l-30">
          <mxGeometry width="160" relative="1" as="geometry">
            <mxPoint x="626" y="90" as="sourcePoint" />
            <mxPoint x="532" y="131" as="targetPoint" />
          </mxGeometry>
        </mxCell>
        <mxCell id="bptloFo_OnKCybxd525l-34" value="&amp;lt;&amp;lt;include&amp;gt;&amp;gt;" style="html=1;verticalAlign=bottom;labelBackgroundColor=none;endArrow=open;endFill=0;dashed=1;rounded=0;" edge="1" parent="1" source="bptloFo_OnKCybxd525l-2" target="bptloFo_OnKCybxd525l-30">
          <mxGeometry width="160" relative="1" as="geometry">
            <mxPoint x="370" y="110" as="sourcePoint" />
            <mxPoint x="372" y="170" as="targetPoint" />
          </mxGeometry>
        </mxCell>
        <mxCell id="kRhZnXcHObBAStlScJWK-1" value="Attribuer/Retirer promotion" style="ellipse;whiteSpace=wrap;html=1;" vertex="1" parent="1">
          <mxGeometry x="312" y="220" width="104" height="50" as="geometry" />
        </mxCell>
        <mxCell id="kRhZnXcHObBAStlScJWK-2" value="" style="endArrow=block;endSize=16;endFill=0;html=1;rounded=0;" edge="1" parent="1" source="kRhZnXcHObBAStlScJWK-1" target="bptloFo_OnKCybxd525l-10">
          <mxGeometry width="160" relative="1" as="geometry">
            <mxPoint x="414" y="268" as="sourcePoint" />
            <mxPoint x="373" y="280" as="targetPoint" />
          </mxGeometry>
        </mxCell>
      </root>
    </mxGraphModel>
  </diagram>
  <diagram id="2WyjgvtseWEjTx2Jox8Z" name="Page-2">
    <mxGraphModel dx="682" dy="577" grid="1" gridSize="10" guides="1" tooltips="1" connect="1" arrows="1" fold="1" page="1" pageScale="1" pageWidth="827" pageHeight="1169" math="0" shadow="0">
      <root>
        <mxCell id="0" />
        <mxCell id="1" parent="0" />
        <mxCell id="ZCpntKi10QOORKuHB4Zs-1" value="Admin" style="shape=umlActor;verticalLabelPosition=bottom;verticalAlign=top;html=1;" vertex="1" parent="1">
          <mxGeometry x="80" y="330" width="30" height="60" as="geometry" />
        </mxCell>
        <mxCell id="ZCpntKi10QOORKuHB4Zs-2" value="Gérer promotion" style="ellipse;whiteSpace=wrap;html=1;" vertex="1" parent="1">
          <mxGeometry x="240" y="140" width="100" height="50" as="geometry" />
        </mxCell>
        <mxCell id="ZCpntKi10QOORKuHB4Zs-3" value="" style="endArrow=none;html=1;rounded=0;" edge="1" parent="1" source="ZCpntKi10QOORKuHB4Zs-1" target="ZCpntKi10QOORKuHB4Zs-2">
          <mxGeometry width="50" height="50" relative="1" as="geometry">
            <mxPoint x="330" y="250" as="sourcePoint" />
            <mxPoint x="380" y="200" as="targetPoint" />
          </mxGeometry>
        </mxCell>
        <mxCell id="ZCpntKi10QOORKuHB4Zs-4" value="CRUD" style="ellipse;whiteSpace=wrap;html=1;" vertex="1" parent="1">
          <mxGeometry x="160" y="85" width="60" height="30" as="geometry" />
        </mxCell>
        <mxCell id="ZCpntKi10QOORKuHB4Zs-9" value="" style="endArrow=block;endSize=16;endFill=0;html=1;rounded=0;" edge="1" parent="1" source="ZCpntKi10QOORKuHB4Zs-4" target="ZCpntKi10QOORKuHB4Zs-2">
          <mxGeometry width="160" relative="1" as="geometry">
            <mxPoint x="414" y="144" as="sourcePoint" />
            <mxPoint x="349" y="170" as="targetPoint" />
          </mxGeometry>
        </mxCell>
        <mxCell id="ZCpntKi10QOORKuHB4Zs-10" value="Gerer role" style="ellipse;whiteSpace=wrap;html=1;" vertex="1" parent="1">
          <mxGeometry x="266" y="320" width="90" height="30" as="geometry" />
        </mxCell>
        <mxCell id="ZCpntKi10QOORKuHB4Zs-11" value="CRUD" style="ellipse;whiteSpace=wrap;html=1;" vertex="1" parent="1">
          <mxGeometry x="280" y="250" width="60" height="30" as="geometry" />
        </mxCell>
        <mxCell id="ZCpntKi10QOORKuHB4Zs-14" value="" style="endArrow=block;endSize=16;endFill=0;html=1;rounded=0;" edge="1" parent="1" source="ZCpntKi10QOORKuHB4Zs-11" target="ZCpntKi10QOORKuHB4Zs-10">
          <mxGeometry width="160" relative="1" as="geometry">
            <mxPoint x="323" y="200" as="sourcePoint" />
            <mxPoint x="307" y="270" as="targetPoint" />
          </mxGeometry>
        </mxCell>
        <mxCell id="ZCpntKi10QOORKuHB4Zs-17" value="" style="endArrow=none;html=1;rounded=0;" edge="1" parent="1" source="ZCpntKi10QOORKuHB4Zs-1" target="ZCpntKi10QOORKuHB4Zs-10">
          <mxGeometry width="50" height="50" relative="1" as="geometry">
            <mxPoint x="152" y="439" as="sourcePoint" />
            <mxPoint x="310" y="281" as="targetPoint" />
          </mxGeometry>
        </mxCell>
        <mxCell id="ZCpntKi10QOORKuHB4Zs-18" value="Exporter liste des produits" style="ellipse;whiteSpace=wrap;html=1;" vertex="1" parent="1">
          <mxGeometry x="200" y="500" width="110" height="40" as="geometry" />
        </mxCell>
        <mxCell id="ZCpntKi10QOORKuHB4Zs-19" value="Consulter liste produit" style="ellipse;whiteSpace=wrap;html=1;" vertex="1" parent="1">
          <mxGeometry x="270" y="410" width="86" height="40" as="geometry" />
        </mxCell>
        <mxCell id="ZCpntKi10QOORKuHB4Zs-20" value="&amp;lt;&amp;lt;include&amp;gt;&amp;gt;" style="html=1;verticalAlign=bottom;labelBackgroundColor=none;endArrow=open;endFill=0;dashed=1;rounded=0;" edge="1" parent="1" source="ZCpntKi10QOORKuHB4Zs-10" target="ZCpntKi10QOORKuHB4Zs-19">
          <mxGeometry width="160" relative="1" as="geometry">
            <mxPoint x="220" y="546" as="sourcePoint" />
            <mxPoint x="487" y="330" as="targetPoint" />
          </mxGeometry>
        </mxCell>
        <mxCell id="ZCpntKi10QOORKuHB4Zs-21" value="&amp;lt;&amp;lt;extend&amp;gt;&amp;gt;" style="html=1;verticalAlign=bottom;labelBackgroundColor=none;endArrow=open;endFill=0;dashed=1;rounded=0;" edge="1" parent="1" source="ZCpntKi10QOORKuHB4Zs-18" target="ZCpntKi10QOORKuHB4Zs-19">
          <mxGeometry width="160" relative="1" as="geometry">
            <mxPoint x="626" y="435" as="sourcePoint" />
            <mxPoint x="530" y="385" as="targetPoint" />
          </mxGeometry>
        </mxCell>
        <mxCell id="ZCpntKi10QOORKuHB4Zs-22" value="Voir détail, avis et note produits" style="ellipse;whiteSpace=wrap;html=1;" vertex="1" parent="1">
          <mxGeometry x="358" y="500" width="110" height="40" as="geometry" />
        </mxCell>
        <mxCell id="ZCpntKi10QOORKuHB4Zs-23" value="&amp;lt;&amp;lt;extend&amp;gt;&amp;gt;" style="html=1;verticalAlign=bottom;labelBackgroundColor=none;endArrow=open;endFill=0;dashed=1;rounded=0;" edge="1" parent="1" source="ZCpntKi10QOORKuHB4Zs-22" target="ZCpntKi10QOORKuHB4Zs-19">
          <mxGeometry width="160" relative="1" as="geometry">
            <mxPoint x="426" y="490" as="sourcePoint" />
            <mxPoint x="332" y="531" as="targetPoint" />
          </mxGeometry>
        </mxCell>
        <mxCell id="ZCpntKi10QOORKuHB4Zs-24" value="Se déconnecter" style="ellipse;whiteSpace=wrap;html=1;" vertex="1" parent="1">
          <mxGeometry x="600" y="230" width="80" height="50" as="geometry" />
        </mxCell>
        <mxCell id="ZCpntKi10QOORKuHB4Zs-25" value="&amp;lt;&amp;lt;include&amp;gt;&amp;gt;" style="html=1;verticalAlign=bottom;labelBackgroundColor=none;endArrow=open;endFill=0;dashed=1;rounded=0;" edge="1" parent="1" source="ZCpntKi10QOORKuHB4Zs-19" target="ZCpntKi10QOORKuHB4Zs-24">
          <mxGeometry width="160" relative="1" as="geometry">
            <mxPoint x="682" y="320" as="sourcePoint" />
            <mxPoint x="680" y="370" as="targetPoint" />
          </mxGeometry>
        </mxCell>
        <mxCell id="ZCpntKi10QOORKuHB4Zs-26" value="&amp;lt;&amp;lt;include&amp;gt;&amp;gt;" style="html=1;verticalAlign=bottom;labelBackgroundColor=none;endArrow=open;endFill=0;dashed=1;rounded=0;" edge="1" parent="1" source="ZCpntKi10QOORKuHB4Zs-28" target="ZCpntKi10QOORKuHB4Zs-24">
          <mxGeometry width="160" relative="1" as="geometry">
            <mxPoint x="414" y="246" as="sourcePoint" />
            <mxPoint x="694" y="120" as="targetPoint" />
          </mxGeometry>
        </mxCell>
        <mxCell id="ZCpntKi10QOORKuHB4Zs-28" value="Consulter liste promotion" style="ellipse;whiteSpace=wrap;html=1;" vertex="1" parent="1">
          <mxGeometry x="414" y="80" width="86" height="40" as="geometry" />
        </mxCell>
        <mxCell id="ZCpntKi10QOORKuHB4Zs-32" value="&amp;lt;&amp;lt;include&amp;gt;&amp;gt;" style="html=1;verticalAlign=bottom;labelBackgroundColor=none;endArrow=open;endFill=0;dashed=1;rounded=0;" edge="1" parent="1" source="ZCpntKi10QOORKuHB4Zs-2" target="ZCpntKi10QOORKuHB4Zs-28">
          <mxGeometry width="160" relative="1" as="geometry">
            <mxPoint x="370" y="110" as="sourcePoint" />
            <mxPoint x="372" y="170" as="targetPoint" />
          </mxGeometry>
        </mxCell>
      </root>
    </mxGraphModel>
  </diagram>
</mxfile>
